<?xml version="1.0" encoding="UTF-8" standalone="no"?>
<!-- Created with Inkscape (http://www.inkscape.org/) -->

<svg
   xmlns:dc="http://purl.org/dc/elements/1.1/"
   xmlns:cc="http://creativecommons.org/ns#"
   xmlns:rdf="http://www.w3.org/1999/02/22-rdf-syntax-ns#"
   xmlns:svg="http://www.w3.org/2000/svg"
   xmlns="http://www.w3.org/2000/svg"
   xmlns:xlink="http://www.w3.org/1999/xlink"
   xmlns:sodipodi="http://sodipodi.sourceforge.net/DTD/sodipodi-0.dtd"
   xmlns:inkscape="http://www.inkscape.org/namespaces/inkscape"
   width="371.66516"
   height="380.72726"
   id="svg2"
   version="1.1"
   inkscape:version="0.48.2 r9819"
   sodipodi:docname="New document 1">
  <defs
     id="defs4">
    <linearGradient
       inkscape:collect="always"
       id="linearGradient3938">
      <stop
         style="stop-color:#41464c;stop-opacity:1;"
         offset="0"
         id="stop3940" />
      <stop
         style="stop-color:#41464c;stop-opacity:0;"
         offset="1"
         id="stop3942" />
    </linearGradient>
    <linearGradient
       inkscape:collect="always"
       id="linearGradient3880">
      <stop
         style="stop-color:#e4dee1;stop-opacity:1;"
         offset="0"
         id="stop3882" />
      <stop
         style="stop-color:#e4dee1;stop-opacity:0;"
         offset="1"
         id="stop3884" />
    </linearGradient>
    <linearGradient
       inkscape:collect="always"
       id="linearGradient3864">
      <stop
         style="stop-color:#a1a0a0;stop-opacity:1;"
         offset="0"
         id="stop3866" />
      <stop
         style="stop-color:#a1a0a0;stop-opacity:0;"
         offset="1"
         id="stop3868" />
    </linearGradient>
    <linearGradient
       inkscape:collect="always"
       id="linearGradient3856">
      <stop
         style="stop-color:#8e848a;stop-opacity:1;"
         offset="0"
         id="stop3858" />
      <stop
         style="stop-color:#8e848a;stop-opacity:0;"
         offset="1"
         id="stop3860" />
    </linearGradient>
    <linearGradient
       inkscape:collect="always"
       id="linearGradient3848">
      <stop
         style="stop-color:#8e848a;stop-opacity:1;"
         offset="0"
         id="stop3850" />
      <stop
         style="stop-color:#8e848a;stop-opacity:0;"
         offset="1"
         id="stop3852" />
    </linearGradient>
    <linearGradient
       inkscape:collect="always"
       id="linearGradient3840">
      <stop
         style="stop-color:#8e848a;stop-opacity:1;"
         offset="0"
         id="stop3842" />
      <stop
         style="stop-color:#8e848a;stop-opacity:0;"
         offset="1"
         id="stop3844" />
    </linearGradient>
    <linearGradient
       inkscape:collect="always"
       xlink:href="#linearGradient3840"
       id="linearGradient3846"
       x1="-340.86365"
       y1="239.75613"
       x2="-232.22726"
       y2="239.75613"
       gradientUnits="userSpaceOnUse"
       gradientTransform="translate(-230.77261,-42.510738)" />
    <linearGradient
       inkscape:collect="always"
       xlink:href="#linearGradient3848"
       id="linearGradient3854"
       x1="-556.13635"
       y1="177.69553"
       x2="-311.74243"
       y2="177.69553"
       gradientUnits="userSpaceOnUse"
       gradientTransform="translate(-230.77261,-42.510738)" />
    <linearGradient
       inkscape:collect="always"
       xlink:href="#linearGradient3856"
       id="linearGradient3862"
       x1="-459.16666"
       y1="330.42279"
       x2="-354.40909"
       y2="330.42279"
       gradientUnits="userSpaceOnUse"
       gradientTransform="translate(-230.77261,-42.510738)" />
    <linearGradient
       inkscape:collect="always"
       xlink:href="#linearGradient3864"
       id="linearGradient3870"
       x1="-426.19696"
       y1="122.90763"
       x2="-203.13635"
       y2="122.90763"
       gradientUnits="userSpaceOnUse"
       gradientTransform="translate(-230.77261,-42.510738)" />
    <linearGradient
       inkscape:collect="always"
       xlink:href="#linearGradient3880"
       id="linearGradient3886"
       x1="-523.16669"
       y1="325.57431"
       x2="-351.5"
       y2="325.57431"
       gradientUnits="userSpaceOnUse"
       gradientTransform="translate(-230.77261,-42.510738)" />
    <linearGradient
       inkscape:collect="always"
       xlink:href="#linearGradient3938"
       id="linearGradient3944"
       x1="-318.06839"
       y1="560.45215"
       x2="267.46042"
       y2="560.45215"
       gradientUnits="userSpaceOnUse"
       gradientTransform="translate(-18.21889,4.0486421)" />
  </defs>
  <sodipodi:namedview
     id="base"
     pagecolor="#ffffff"
     bordercolor="#666666"
     borderopacity="1.0"
     inkscape:pageopacity="0.0"
     inkscape:pageshadow="2"
     inkscape:zoom="0.49399278"
     inkscape:cx="338.81284"
     inkscape:cy="-9.6326758"
     inkscape:document-units="px"
     inkscape:current-layer="layer1"
     showgrid="false"
     showguides="true"
     inkscape:guide-bbox="true"
     fit-margin-top="10"
     fit-margin-left="10"
     fit-margin-right="10"
     fit-margin-bottom="10"
     inkscape:window-width="1024"
     inkscape:window-height="712"
     inkscape:window-x="-4"
     inkscape:window-y="-4"
     inkscape:window-maximized="1" />
  <metadata
     id="metadata7">
    <rdf:RDF>
      <cc:Work
         rdf:about="">
        <dc:format>image/svg+xml</dc:format>
        <dc:type
           rdf:resource="http://purl.org/dc/dcmitype/StillImage" />
        <dc:title></dc:title>
      </cc:Work>
    </rdf:RDF>
  </metadata>
  <g
     inkscape:label="Layer 1"
     inkscape:groupmode="layer"
     id="layer1"
     transform="translate(796.07413,-21.427202)">
    <path
       style="fill:url(#linearGradient3854);fill-opacity:1;stroke:#000000;stroke-width:0;stroke-linecap:butt;stroke-linejoin:miter;stroke-miterlimit:4;stroke-opacity:1;stroke-dasharray:none"
       d="m -781.28775,63.393622 9.42423,-3.84521 12.60606,-1.93939 17.45455,-7.75758 24.24242,-8.72727 13.57576,-4.84849 28.12121,0 32.9697,4.84849 32.00001,13.57575 29.09091,23.27273 5.81818,29.090908 -3.87879,20.36364 7.75758,12.60606 10.66666,2.90909 11.63637,0.9697 6.78788,14.54545 -6.78788,16.48485 -7.75758,16.48485 -13.57576,7.75758 -5.81818,-6.78788 -6.78788,-6.78788 -8.72727,-3.87879 c 0,0 -4.84848,15.51515 -11.63636,18.42424 -6.78788,2.90909 -33.93941,29.09091 -33.93941,29.09091 l -36.84848,4.84849 -16.48485,-2.90909 -18.42424,-13.57576 -7.75758,-9.69697 -14.54545,-9.69697 -8.72728,-8.72727 -11.63636,-4.84849 -8.72727,-13.57576 -4.84849,-12.60606 -2.90909,-24.24242 -3.87879,-23.27273 -6.78787,-14.545448 -4.84849,-15.51515 -1.60359,-11.77069 z"
       id="path2996"
       inkscape:connector-curvature="0"
       sodipodi:nodetypes="ccccccccccccccccccccccscccccccccccccccc" />
    <path
       style="fill:url(#linearGradient3870);fill-opacity:1;stroke:#000000;stroke-width:0;stroke-linecap:butt;stroke-linejoin:miter;stroke-miterlimit:4;stroke-opacity:1;stroke-dasharray:none"
       d="m -657.71603,39.322802 c 8.72727,-0.9697 32.27675,-1.10773 32.27675,-1.10773 l 32.96971,8.72728 c 0,0 19.39394,-1.9394 30.06061,-1.9394 10.66666,0 52.36363,-7.75757 52.36363,-7.75757 l 51.39394,-5.81818 24.24243,0 -12.60606,9.69697 -34.9091,6.78787 -20.36363,8.72728 -18.42424,19.39394 -11.63637,30.060608 -21.33333,21.33333 -24.6572,0.27745 3.32387,-21.61078 -4.84849,-25.212118 -18.14679,-16.62358 -17.732,-12.46734 -24.24243,-8.72727 z"
       id="path2998"
       inkscape:connector-curvature="0"
       sodipodi:nodetypes="cccscccccccccccccccc" />
    <path
       style="fill:url(#linearGradient3846);fill-opacity:1;stroke:#979796;stroke-width:0.005;stroke-linecap:butt;stroke-linejoin:miter;stroke-miterlimit:4;stroke-opacity:1;stroke-dasharray:none"
       d="m -549.13538,142.53304 32.30217,-10.25735 19.39394,-3.87879 16.48485,0 17.45455,1.93939 -5.81818,12.60606 -4.84849,17.45455 -17.45454,32 -21.33334,35.87879 -12.60606,20.36363 c 0,0 -8.72727,6.78788 -8.72727,10.66667 0,3.87879 -0.9697,6.78788 -0.9697,6.78788 0,0 -8.72727,-6.78788 -10.66667,-10.66667 -1.93939,-3.87879 -8.72727,-13.57576 -8.72727,-13.57576 l -10.66666,-18.42424 -5.81819,-18.42424 0,-4.84849 15.0619,-14.69653 6.65877,-15.10586 6.40055,-13.83397 z"
       id="path3000"
       inkscape:connector-curvature="0"
       sodipodi:nodetypes="ccccccccccscscccccccc" />
    <path
       style="fill:url(#linearGradient3886);fill-opacity:1;stroke:#393b39;stroke-width:0.5;stroke-linecap:butt;stroke-linejoin:miter;stroke-miterlimit:4;stroke-opacity:1;stroke-dasharray:none"
       d="m -753.43928,185.60902 12.60606,4.84848 c 0,0 5.50512,8.14144 6.82737,13.71442 2.50278,10.5487 3.3563,21.44168 5.81818,32 3.20612,13.75016 4.98813,28.27146 11.63636,40.72727 5.18378,9.71207 13.65475,17.3232 21.33334,25.21213 14.21058,14.59983 28.75208,29.23556 45.57576,40.72727 21.24729,14.51334 66.86961,37.67952 66.86961,37.67952 0,0 -43.67353,-19.71793 -63.96052,-32.83104 -23.46836,-15.16949 -44.9271,-33.98538 -63.03031,-55.27272 -9.87743,-11.61475 -17.49159,-25.11703 -24.24242,-38.78788 -7.33677,-14.85742 -14.49802,-30.24116 -17.45455,-46.54546 -1.44182,-7.95114 -1.97888,-21.47199 -1.97888,-21.47199 z"
       id="path3002"
       inkscape:connector-curvature="0"
       sodipodi:nodetypes="ccssssscssssc" />
    <path
       style="fill:url(#linearGradient3862);fill-opacity:1;stroke:#000000;stroke-width:0;stroke-linecap:butt;stroke-linejoin:miter;stroke-miterlimit:4;stroke-opacity:1;stroke-dasharray:none"
       d="m -689.43928,231.18478 15.51515,37.81818 11.63637,32 14.54545,26.18182 13.57576,26.18181 22.30304,25.21213 21.33333,13.57575 -24.24242,-31.0303 -1.93939,-23.27273 4.84848,-33.93939 11.63636,-34.90909 10.66667,-26.18182 3.87879,-27.15152 -5.81818,-27.15151 -3.87879,-4.84849 -25.6255,30.19794 -12.46945,12.05325 -28.5367,6.64985 z"
       id="path3004"
       inkscape:connector-curvature="0"
       sodipodi:nodetypes="ccccccccccccccccccc" />
    <path
       style="fill:#000000;fill-opacity:1;stroke:#000000;stroke-width:0.005;stroke-linecap:butt;stroke-linejoin:miter;stroke-miterlimit:4;stroke-opacity:1;stroke-dasharray:none"
       d="m -639.98473,47.912042 -18.42424,27.15152 -10.68195,30.179488 -23.25745,48.36597 -2.90909,26.18182 -5.81818,23.27272 2.90909,6.78788 6.78788,-1.93939 8.72727,-37.81818 15.51515,-30.06061 10.66667,-27.15151 10.66667,-25.212128 11.63636,-23.27272 6.78788,-14.54546 z"
       id="path3006"
       inkscape:connector-curvature="0"
       sodipodi:nodetypes="ccccccccccccccc" />
    <path
       style="fill:#000000;fill-opacity:1;stroke:#000000;stroke-width:0.005;stroke-linecap:butt;stroke-linejoin:miter;stroke-miterlimit:4;stroke-opacity:1;stroke-dasharray:none"
       d="m -619.62108,145.85144 -26.18183,53.33334 -0.9697,23.27272 -12.60606,9.69697 -4.84849,32 0,22.30303 5.81819,17.45455 17.45454,33.93939 24.24244,35.87879 9.69697,3.87879 c 0,0 -0.9697,-9.69697 -4.84849,-9.69697 -3.87879,0 -1.93939,-16.48485 -1.93939,-16.48485 l -5.81818,-18.42424 -15.51517,-29.09091 -11.63636,-37.81818 0.9697,-37.81818 19.39394,-19.39394 17.45455,-25.21213 17.45455,-37.81818 8.72727,-32 3.87879,-23.272718 7.75757,-15.51516 27.15152,-13.57575 22.30303,-5.81819 35.87879,-4.84848 38.78788,-10.66667 8.72727,-6.78788 -9.69697,0 -48.48485,9.69697 -32,7.75758 -32,3.87878 -18.42424,6.78789 -9.69697,7.75757 -2.90909,16.48485 -12.60606,29.090908 -11.63637,19.39394 z"
       id="path3008"
       inkscape:connector-curvature="0" />
    <path
       sodipodi:type="arc"
       style="fill:#b5b4b0;fill-opacity:1;stroke:#adadaa;stroke-width:0.005;stroke-linecap:round;stroke-linejoin:round;stroke-miterlimit:4;stroke-opacity:1;stroke-dasharray:none;stroke-dashoffset:0"
       id="path3010"
       sodipodi:cx="-509.09091"
       sodipodi:cy="130.66521"
       sodipodi:rx="11.636364"
       sodipodi:ry="12.121212"
       d="m -497.45455,130.66521 c 0,6.69436 -5.20978,12.12121 -11.63636,12.12121 -6.42659,0 -11.63637,-5.42685 -11.63637,-12.12121 0,-6.69436 5.20978,-12.12122 11.63637,-12.12122 6.42658,0 11.63636,5.42686 11.63636,12.12122 z"
       transform="translate(-231.99697,-43.049458)" />
    <path
       style="fill:#000000;fill-opacity:1;stroke:#000000;stroke-width:0.005;stroke-linecap:butt;stroke-linejoin:miter;stroke-miterlimit:4;stroke-opacity:1;stroke-dasharray:none"
       d="m -760.27688,167.45828 -10.94017,-31.7265 4.37606,-20.78632 12.03419,-19.692308 10.94017,5.470088 -5.47008,12.03419 -5.47009,15.31623 -5.47008,19.69231 z"
       id="path3788"
       inkscape:connector-curvature="0" />
    <path
       style="fill:#000000;fill-opacity:1;stroke:#000000;stroke-width:0.005;stroke-linecap:butt;stroke-linejoin:miter;stroke-miterlimit:4;stroke-opacity:1;stroke-dasharray:none"
       d="m -725.7853,53.361932 15.31624,-6.56411 15.31624,0 1.09402,7.65812 -13.12821,14.22224 0,10.94017 -5.47009,5.47008 -15.31623,4.37607 -3.28206,-9.84615 -3.28205,-9.84616 4.37607,-8.75213 z"
       id="path3790"
       inkscape:connector-curvature="0" />
    <path
       sodipodi:type="arc"
       style="fill:#1e0000;fill-opacity:1;stroke:#313031;stroke-width:0.005;stroke-linecap:round;stroke-linejoin:round;stroke-miterlimit:4;stroke-opacity:1;stroke-dasharray:none;stroke-dashoffset:0"
       id="path3792"
       sodipodi:cx="-509.84598"
       sodipodi:cy="129.86632"
       sodipodi:rx="6.7313132"
       sodipodi:ry="6.5783286"
       d="m -503.11466,129.86632 c 0,3.63311 -3.01372,6.57833 -6.73132,6.57833 -3.7176,0 -6.73131,-2.94522 -6.73131,-6.57833 0,-3.63311 3.01371,-6.57833 6.73131,-6.57833 3.7176,0 6.73132,2.94522 6.73132,6.57833 z"
       transform="translate(-230.77261,-42.510738)" />
    <path
       style="fill:none;stroke:#000000;stroke-width:0.005;stroke-linecap:butt;stroke-linejoin:miter;stroke-miterlimit:4;stroke-opacity:1;stroke-dasharray:none"
       d="M -779.03911,67.243532 z"
       id="path3794"
       inkscape:connector-curvature="0" />
    <path
       style="fill:#f7f4f7;fill-opacity:1;stroke:none"
       d="m -786.07413,69.039222 7.37151,3.60018 3.19927,1.29065 1.13471,0.0692 c 0,0 0.11748,-1.59169 -0.81821,-2.87119 -1.69442,-2.31711 -2.0675,-3.37197 -3.27885,-5.84874 -0.49327,-1.00855 -0.41776,-3.34214 -0.41776,-3.34214 l -3.47646,2.05526 z"
       id="path3798"
       inkscape:connector-curvature="0"
       sodipodi:nodetypes="ccccssccc" />
    <path
       style="fill:#232522;fill-opacity:1;stroke:#adadaa;stroke-width:0;stroke-linecap:butt;stroke-linejoin:miter;stroke-miterlimit:4;stroke-opacity:1;stroke-dasharray:none"
       d="m -559.97333,144.23735 -1.67107,16.7107 -5.0132,12.53302 -5.84875,10.86195 -5.01321,5.84875 6.68428,8.77311 12.95079,-10.44418 10.86195,-24.23051 c 0,0 5.01321,-4.17768 2.50661,-9.19089 -2.50661,-5.01321 -4.59544,-10.86195 -4.59544,-10.86195 l -2.08884,-0.41777 z"
       id="path3800"
       inkscape:connector-curvature="0" />
    <path
       style="fill:#922522;fill-opacity:1;stroke:#000000;stroke-width:0;stroke-linecap:butt;stroke-linejoin:miter;stroke-miterlimit:4;stroke-opacity:1;stroke-dasharray:none"
       d="m -740.75546,80.659942 c -0.54601,0.54067 0.31459,2.25935 0.45759,2.25935 0.14299,0 2.00195,1.45856 2.03055,1.57296 0.0286,0.1144 0.3134,1.44148 0.31459,2.17355 0.002,0.95317 -0.13321,1.91637 -0.40039,2.83133 -0.1997,0.68387 -0.53012,1.3279 -0.88658,1.94475 -0.28722,0.49703 -0.78356,0.87009 -1.00097,1.40137 -0.0695,0.16971 -0.0858,0.54338 -0.0858,0.54338 0,0 0.003,0.61536 0.22879,0.74359 0.56272,0.32013 1.2933,-0.2007 1.88756,-0.45759 0.99267,-0.42912 1.97293,-0.98831 2.71693,-1.77316 0.71994,-0.75947 1.29602,-1.70777 1.57296,-2.71693 0.23212,-0.84583 0.17655,-1.76661 0.0286,-2.63114 -0.12667,-0.74018 -0.43549,-1.44512 -0.77218,-2.11635 -0.29637,-0.59086 -0.62123,-1.18948 -1.08677,-1.65876 -0.6536,-0.65885 -1.46134,-1.18397 -2.31655,-1.54436 -0.84427,-0.35578 -2.03733,-1.21663 -2.68833,-0.57199 z"
       id="path3810"
       inkscape:connector-curvature="0"
       sodipodi:nodetypes="ssssssscsssssssss" />
  </g>
</svg>
